<svg xmlns="http://www.w3.org/2000/svg" fill="none" viewBox="0 0 568 201">
  <path fill="#34383C" d="M250.72 154.28c6.24 0 11.68-.96 16.32-2.4v-31.52c-2.24 1.12-4.32 1.6-5.92 1.6-3.2 0-5.44-1.92-5.44-6.4V92.52h12.16V64.36h-12.16V47.08H232l-.48 4.16c-1.28 11.68-6.24 17.92-15.52 21.12v20.16h6.56v32.64c0 20.32 9.6 29.12 28.16 29.12Z"/>
  <path fill="#34383C" d="M314.409 154.6c28.48 0 46.72-17.92 46.72-45.92s-18.24-45.92-46.72-45.92c-28.32 0-46.72 18.08-46.72 45.92 0 28 18.24 45.92 46.72 45.92Zm-12.48-45.92c0-7.84 5.12-13.12 12.48-13.12s12.48 5.28 12.48 13.12c0 7.68-5.12 13.12-12.48 13.12-7.2 0-12.48-5.44-12.48-13.12Zm62.029 65.92h33.119v-25.76h.321c5.6 3.52 11.839 5.12 18.4 5.12 21.119 0 37.76-17.12 37.76-45.28 0-27.52-15.201-45.12-37.921-45.12-8.16 0-15.84 2.24-21.44 7.04h-.319v-6.24h-29.92V174.6Zm31.039-66.24c0-8.96 5.76-13.76 12.161-13.76 6.399 0 12.16 4.8 12.16 13.76 0 9.12-5.761 13.76-12.16 13.76-6.401 0-12.161-4.64-12.161-13.76ZM456.893 153h33.12V64.36h-33.12V153Zm-1.761-109.12c0 9.76 6.881 16.16 18.401 16.16s18.4-6.4 18.4-16.16-6.88-16.32-18.4-16.32-18.401 6.56-18.401 16.32Zm83.029 109.92c3.52 0 6.72-.32 10.24-.8v-32.48c-2.4.96-4.8 1.44-7.04 1.44-6.72 0-13.44-4.16-13.44-13.28s6.72-13.28 13.44-13.28c2.24 0 4.64.48 7.04 1.44V64.36c-3.52-.48-6.72-.8-10.24-.8-25.92 0-44.96 16.64-44.96 45.12 0 28.48 19.04 45.12 44.96 45.12Z"/>
  <g fill-rule="evenodd" clip-path="url(#a)" clip-rule="evenodd">
    <path fill="url(#b)" d="M177 169v-31H47V78H16v65.4c0 8.961 0 13.441 1.744 16.864a16.003 16.003 0 0 0 6.992 6.992C28.16 169 32.64 169 41.6 169H177Z"/>
    <path fill="url(#c)" d="M33.744 71.736C32 75.16 32 79.64 32 88.6v38.8c0 8.961 0 13.441 1.744 16.864a16.003 16.003 0 0 0 6.992 6.992C44.16 153 48.64 153 57.6 153h108.8c8.961 0 13.441 0 16.864-1.744a16.005 16.005 0 0 0 6.992-6.992C192 140.841 192 136.361 192 127.4V88.6c0-8.96 0-13.441-1.744-16.864a16.003 16.003 0 0 0-6.992-6.992C179.841 63 175.361 63 166.4 63H57.6c-8.96 0-13.441 0-16.864 1.744a16 16 0 0 0-6.992 6.992ZM177 78H47v60h130V78Z"/>
  </g>
  <defs>
    <linearGradient id="b" x1="16" x2="177" y1="169" y2="78" gradientUnits="userSpaceOnUse">
      <stop stop-color="#B7C3D1"/>
      <stop offset="1" stop-color="#B7C3D1" stop-opacity="0"/>
    </linearGradient>
    <linearGradient id="c" x1="192" x2="-12" y1="63" y2="225" gradientUnits="userSpaceOnUse">
      <stop stop-color="#1B99FF"/>
      <stop offset="1" stop-color="#8621D0"/>
    </linearGradient>
    <clipPath id="a">
      <path fill="#fff" d="M0 0h176v106H0z" transform="translate(16 63)"/>
    </clipPath>
  </defs>
</svg>
